<?xml version="1.0" encoding="utf-8"?>
<!-- Generator: Adobe Illustrator 17.0.0, SVG Export Plug-In . SVG Version: 6.00 Build 0)  -->
<!DOCTYPE svg PUBLIC "-//W3C//DTD SVG 1.1//EN" "http://www.w3.org/Graphics/SVG/1.1/DTD/svg11.dtd">
<svg version="1.1" id="Layer_1" xmlns="http://www.w3.org/2000/svg" xmlns:xlink="http://www.w3.org/1999/xlink" x="0px" y="0px"
	 width="222px" height="42px" viewBox="0 0 222 42" enable-background="new 0 0 222 42" xml:space="preserve">
<g>
	<g>
		<path fill="#6D6E71" d="M47.839,11.347h4.407V8.871c0-1.881,0.207-3.408,0.622-4.579c0.415-1.171,0.967-2.073,1.659-2.707
			c0.691-0.634,1.478-1.056,2.359-1.267C57.768,0.106,58.692,0,59.66,0c1.901,0,3.283,0.135,4.148,0.403V5.53
			c-0.381-0.115-0.787-0.202-1.219-0.259c-0.433-0.058-0.942-0.087-1.53-0.087c-0.795,0-1.478,0.212-2.048,0.634
			c-0.57,0.423-0.856,1.248-0.856,2.477v3.053h5.029v4.896h-5.029v24.884h-5.911V16.243h-4.407V11.347z"/>
		<path fill="#6D6E71" d="M90.355,41.127h-5.807V36.98h-0.104c-0.726,1.498-1.807,2.699-3.241,3.6
			c-1.435,0.902-2.896,1.354-4.381,1.354c-3.526,0-6.075-0.969-7.648-2.909c-1.573-1.938-2.359-4.867-2.359-8.784V11.347h5.911
			v18.26c0,2.612,0.449,4.455,1.348,5.53c0.898,1.076,2.16,1.613,3.785,1.613c1.245,0,2.281-0.211,3.111-0.634
			c0.83-0.422,1.504-0.988,2.022-1.699c0.519-0.71,0.89-1.564,1.115-2.563c0.224-0.998,0.337-2.074,0.337-3.226V11.347h5.911V41.127
			z"/>
		<path fill="#6D6E71" d="M96.732,0h5.911v41.127h-5.911V0z"/>
		<path fill="#6D6E71" d="M109.228,0h5.911v41.127h-5.911V0z"/>
		<path fill="#6D6E71" d="M126.182,27.937c0,1.152,0.147,2.266,0.441,3.341c0.293,1.076,0.734,2.016,1.322,2.823
			c0.587,0.807,1.331,1.45,2.23,1.929c0.899,0.481,1.97,0.72,3.215,0.72c1.728,0,3.119-0.413,4.174-1.238
			c1.054-0.825,1.841-2.064,2.359-3.715h5.6c-0.311,1.613-0.848,3.053-1.607,4.32c-0.761,1.267-1.677,2.333-2.748,3.197
			c-1.072,0.864-2.273,1.517-3.603,1.958c-1.331,0.441-2.722,0.663-4.174,0.663c-2.109,0-3.976-0.384-5.6-1.152
			c-1.625-0.768-2.999-1.843-4.122-3.226c-1.123-1.382-1.97-3.033-2.541-4.954c-0.57-1.92-0.855-4.032-0.855-6.336
			c0-2.111,0.302-4.118,0.907-6.019c0.604-1.901,1.469-3.571,2.592-5.011c1.123-1.44,2.48-2.582,4.07-3.427
			c1.59-0.844,3.387-1.267,5.393-1.267c2.108,0,4.001,0.49,5.678,1.469c1.676,0.979,3.067,2.275,4.174,3.888
			c1.106,1.613,1.909,3.466,2.411,5.558c0.501,2.094,0.631,4.254,0.389,6.48H126.182z M139.975,23.616
			c-0.07-1.037-0.269-2.035-0.597-2.995c-0.329-0.96-0.778-1.795-1.348-2.506c-0.57-0.71-1.262-1.286-2.074-1.728
			c-0.812-0.441-1.72-0.662-2.722-0.662c-1.037,0-1.979,0.201-2.826,0.605c-0.848,0.403-1.573,0.96-2.178,1.67
			c-0.605,0.711-1.089,1.546-1.452,2.506c-0.363,0.96-0.562,1.997-0.596,3.11H139.975z"/>
		<path fill="#6D6E71" d="M150.396,11.347h5.548v5.76h0.104c0.172-0.807,0.51-1.593,1.011-2.362
			c0.501-0.768,1.106-1.469,1.815-2.102c0.708-0.634,1.495-1.142,2.359-1.526c0.863-0.384,1.745-0.576,2.644-0.576
			c0.691,0,1.167,0.02,1.426,0.058c0.26,0.039,0.527,0.078,0.804,0.115v6.336c-0.415-0.076-0.839-0.144-1.271-0.202
			c-0.432-0.057-0.855-0.086-1.27-0.086c-1.003,0-1.944,0.221-2.826,0.663c-0.881,0.442-1.651,1.094-2.308,1.958
			c-0.657,0.864-1.175,1.929-1.555,3.197c-0.381,1.267-0.57,2.727-0.57,4.378v14.17h-5.911V11.347z"/>
		<path fill="#6D6E71" d="M180.003,41.934c-2.144,0-4.053-0.394-5.729-1.181c-1.677-0.787-3.094-1.872-4.252-3.255
			c-1.159-1.382-2.04-3.033-2.644-4.954c-0.605-1.92-0.907-4.032-0.907-6.336c0-2.265,0.302-4.358,0.907-6.278
			c0.605-1.92,1.486-3.571,2.644-4.953c1.158-1.382,2.575-2.467,4.252-3.255c1.676-0.787,3.585-1.181,5.729-1.181
			c2.143,0,4.053,0.394,5.729,1.181c1.676,0.788,3.093,1.872,4.252,3.255c1.158,1.382,2.039,3.034,2.644,4.953
			c0.604,1.921,0.907,4.013,0.907,6.278c0,2.304-0.303,4.417-0.907,6.336c-0.605,1.921-1.487,3.571-2.644,4.954
			c-1.159,1.382-2.576,2.468-4.252,3.255C184.055,41.54,182.145,41.934,180.003,41.934z M180.003,36.75
			c1.313,0,2.454-0.307,3.422-0.922c0.968-0.614,1.763-1.42,2.385-2.419c0.622-0.998,1.08-2.122,1.374-3.37
			c0.293-1.247,0.441-2.524,0.441-3.83c0-1.267-0.148-2.534-0.441-3.802c-0.294-1.267-0.752-2.39-1.374-3.37
			c-0.622-0.979-1.418-1.776-2.385-2.39c-0.968-0.614-2.109-0.922-3.422-0.922c-1.314,0-2.455,0.308-3.422,0.922
			c-0.968,0.615-1.763,1.411-2.385,2.39c-0.622,0.979-1.08,2.102-1.374,3.37c-0.294,1.267-0.441,2.535-0.441,3.802
			c0,1.306,0.147,2.583,0.441,3.83c0.293,1.248,0.752,2.372,1.374,3.37c0.622,0.999,1.417,1.805,2.385,2.419
			C177.548,36.443,178.689,36.75,180.003,36.75z"/>
		<path fill="#6D6E71" d="M198.46,11.347h5.6v4.378l0.104,0.115c0.899-1.651,2.074-2.947,3.526-3.888
			c1.452-0.941,3.059-1.411,4.822-1.411c2.938,0,5.254,0.845,6.948,2.535c1.693,1.69,2.541,4.224,2.541,7.603v20.449h-5.911v-18.72
			c-0.07-2.342-0.519-4.041-1.348-5.098c-0.83-1.056-2.126-1.584-3.889-1.584c-1.003,0-1.901,0.201-2.696,0.605
			c-0.796,0.403-1.47,0.96-2.022,1.67c-0.553,0.711-0.985,1.546-1.296,2.506c-0.311,0.96-0.467,1.978-0.467,3.053v17.568h-5.911
			V11.347z"/>
	</g>
	<circle fill="#00B0D8" cx="6.239" cy="6.465" r="6.239"/>
	<circle fill="#00B0D8" cx="20.104" cy="6.465" r="6.239"/>
	<circle fill="#00B0D8" cx="33.969" cy="6.465" r="6.239"/>
	<circle fill="#CBCBCB" cx="6.239" cy="20.33" r="6.239"/>
	<circle fill="#00B0D8" cx="20.104" cy="20.33" r="6.239"/>
	<circle fill="#00B0D8" cx="33.969" cy="20.33" r="6.239"/>
	<circle fill="#CBCBCB" cx="6.239" cy="34.195" r="6.239"/>
	<circle fill="#CBCBCB" cx="20.104" cy="34.195" r="6.239"/>
	<circle fill="#00B0D8" cx="33.969" cy="34.195" r="6.239"/>
</g>
</svg>
