<?xml version="1.0" encoding="utf-8"?>
<!-- Generator: Adobe Illustrator 15.1.0, SVG Export Plug-In  -->
<!DOCTYPE svg PUBLIC "-//W3C//DTD SVG 1.1//EN" "http://www.w3.org/Graphics/SVG/1.1/DTD/svg11.dtd" [
	<!ENTITY ns_flows "http://ns.adobe.com/Flows/1.0/">
]>
<svg version="1.1"
	 xmlns="http://www.w3.org/2000/svg" xmlns:xlink="http://www.w3.org/1999/xlink" xmlns:a="http://ns.adobe.com/AdobeSVGViewerExtensions/3.0/"
	 x="0px" y="0px" width="172px" height="31px" viewBox="0 0 172 31" overflow="visible" enable-background="new 0 0 172 31"
	 xml:space="preserve">
<defs>
</defs>
<path fill="#454545" d="M41.6,13.1v-2.9l3.3-0.6V5.9C44.9,2,46.7,0,50.3,0c1.8,0,3.5,0.3,5.1,0.9v2.7l-4,0c-0.8,0-1.4,0.1-1.7,0.5
	c-0.3,0.2-0.4,0.6-0.5,1.1c0,0.5,0,1,0,1.5v2.9h4.9v3.6h-4.9v16.4h-4.4V13.1H41.6z"/>
<path fill="#454545" d="M56.5,23.1V9.6h4.4v13.6c0,1,0.2,1.8,0.7,2.3c0.5,0.5,1.2,0.7,2.2,0.7c1,0,1.9-0.1,2.6-0.4
	c0.8-0.3,1.7-0.8,2.9-1.5V9.6h4.4v19.9h-3.4l-1-2.2c-0.2,0.1-0.5,0.3-1,0.6c-0.5,0.3-0.8,0.5-1,0.6c-0.2,0.1-0.6,0.3-1,0.5
	c-0.4,0.2-0.8,0.4-1.1,0.5c-0.9,0.2-1.7,0.4-2.6,0.4c-2.1,0-3.6-0.6-4.6-1.9C57,26.7,56.5,25.1,56.5,23.1z"/>
<path fill="#454545" d="M77.4,22.4V0.1h4.4v21.8c0,1.4,0.2,2.4,0.5,2.9c0.3,0.6,0.8,0.9,1.4,1.1c1.7,0.5,2.6,0.8,2.8,0.8v2.8h-4
	c-1.7,0-2.9-0.6-3.8-1.7C77.8,26.8,77.4,25,77.4,22.4z"/>
<path fill="#454545" d="M89,22.4V0.1h4.4v21.8c0,1.4,0.1,2.4,0.5,2.9c0.3,0.6,0.8,0.9,1.4,1.1c1.7,0.5,2.6,0.8,2.8,0.8v2.8h-4
	c-1.7,0-2.9-0.6-3.8-1.7C89.4,26.8,89,25,89,22.4z"/>
<path fill="#454545" d="M100.2,11.9c0.8-1,1.7-1.7,2.8-2c1.1-0.3,2.4-0.5,3.8-0.5c1.4,0,2.5,0,3.1,0.1c0.7,0.1,1.3,0.2,2,0.3
	c0.7,0.2,1.2,0.4,1.6,0.7c0.4,0.3,0.8,0.8,1.1,1.3c0.6,1,0.9,2.5,0.9,4.8c0,3.2-1.8,4.8-5.4,4.8H103c0,2,0.3,3.2,1,3.8
	c0.4,0.3,0.8,0.5,1.2,0.6c0.5,0.1,1.8,0.2,4,0.2c2.2,0,4.2-0.1,5.9-0.4v3c-2.1,0.7-5.4,1.1-9.9,1.1c-2.5,0-4.2-0.8-5.2-2.3
	c-0.9-1.5-1.4-4.2-1.4-7.9C98.7,15.7,99.2,13.2,100.2,11.9z M111.2,16.4c0-1.5-0.2-2.5-0.6-2.9c-0.4-0.4-1.4-0.6-2.9-0.6
	c-2,0-3.2,0.2-3.6,0.7c-0.5,0.6-0.8,1.2-0.9,2c-0.1,0.8-0.1,1.6-0.1,2.4h6.2C110.6,18.1,111.2,17.5,111.2,16.4z"/>
<path fill="#454545" d="M124.9,10.7c0.5-0.3,1.2-0.6,2-0.9c0.8-0.3,1.8-0.5,2.8-0.5c1,0,1.7,0.1,2.1,0.3v4.2
	c-0.7-0.1-1.6-0.2-2.9-0.2c-1.3,0-2.3,0.2-3.2,0.5c-0.9,0.3-1.8,0.9-2.7,1.7v13.6h-4.4V9.6h3.5l0.8,2.5
	C123.8,11.5,124.4,11.1,124.9,10.7z"/>
<path fill="#454545" d="M135.4,27.4c-0.7-0.8-1.2-1.8-1.5-3c-0.3-1.2-0.5-3-0.5-5.2c0-2.3,0.3-4.2,0.9-5.7c0.6-1.5,1.5-2.6,2.8-3.2
	c1.3-0.6,3-0.9,5.4-0.9c3.4,0,5.8,0.8,7,2.3c1.3,1.5,1.9,4.2,1.9,8c0,3.8-0.6,6.5-1.9,7.9c-1.3,1.4-3.6,2.1-7,2.1
	c-1.7,0-3.2-0.2-4.3-0.5C137,28.8,136.1,28.2,135.4,27.4z M138.2,15.3c-0.2,0.5-0.3,1.1-0.3,1.8c-0.1,0.7-0.1,1.6-0.1,2.6
	c0,1,0,1.8,0.1,2.5c0.1,0.7,0.2,1.2,0.4,1.7s0.4,0.8,0.6,1.1c0.2,0.3,0.5,0.5,0.9,0.6c0.6,0.2,1.4,0.3,2.3,0.3s1.6,0,2-0.1
	c0.4-0.1,0.9-0.2,1.3-0.4c0.4-0.2,0.7-0.5,0.9-1c0.4-1,0.6-2.3,0.6-3.9s0-2.7-0.1-3.4c-0.1-0.7-0.2-1.3-0.3-1.8
	c-0.2-0.5-0.3-0.9-0.5-1.2c-0.2-0.3-0.5-0.5-0.9-0.7c-0.6-0.2-1.4-0.4-2.3-0.4c-1,0-1.6,0-2,0.1c-0.4,0.1-0.8,0.2-1.2,0.3
	s-0.7,0.4-0.9,0.7C138.6,14.4,138.4,14.8,138.2,15.3z"/>
<path fill="#454545" d="M167.6,16c0-2-0.9-3-2.6-3c-1.2,0-2.1,0.1-2.9,0.4s-1.7,0.8-2.9,1.4v14.7h-4.4V9.6h3.4l1,2.2
	c0.1,0,0.3-0.2,0.8-0.5s0.9-0.6,1.4-0.9c0.5-0.3,1.1-0.5,1.9-0.8c0.8-0.2,1.7-0.4,2.6-0.4c2.1,0,3.6,0.6,4.6,1.9
	c1,1.3,1.5,2.9,1.5,4.9v13.5h-4.4V16z"/>
<circle fill="#5A73B8" cx="3.4" cy="4.8" r="3.4"/>
<circle fill="#5A73B8" cx="3.4" cy="15.9" r="3.4"/>
<circle fill="#5A73B8" cx="3.4" cy="26.5" r="3.4"/>
<circle fill="#5A73B8" cx="14.5" cy="4.8" r="3.4"/>
<circle fill="#5A73B8" cx="14.5" cy="15.9" r="3.4"/>
<circle fill="#CCCCCC" cx="14.5" cy="26.5" r="3.4"/>
<circle fill="#5A73B8" cx="25.6" cy="4.8" r="3.4"/>
<circle fill="#CCCCCC" cx="25.6" cy="15.9" r="3.4"/>
<circle fill="#CCCCCC" cx="25.6" cy="26.5" r="3.4"/>
</svg>
