<svg xmlns="http://www.w3.org/2000/svg"  xmlns:xlink="http://www.w3.org/1999/xlink">
	<symbol id='icon-dashboard' viewBox="0 0 428.948 428.948">
		<g>
			<path d="M221.988,280.48c9.664,0,17.516-7.889,17.516-17.563c0-9.653-7.852-17.487-17.516-17.487    l-79.361-58.371l61.844,76.985C205.045,273.208,212.68,280.48,221.988,280.48z"/>
			<rect x="127.008" y="332.197" width="174.933" height="41.513"/>
			<path d="M366.13,118.057c-40.51-40.509-94.369-62.818-151.656-62.818    c-57.288,0-111.148,22.309-151.657,62.818S0,212.425,0,269.713c0,36.99,9.319,72.539,26.816,103.997h40.086l29.319-16.929    l-12.948-22.428l-37.7,21.768c-13.319-25.932-20.843-55.307-20.843-86.408c0-5.504,0.25-10.951,0.711-16.338l44.952,7.926    l4.497-25.504l-45.481-8.019c8.127-35.883,26.451-67.937,51.755-92.948l30.815,36.725l19.839-16.646l-31.049-37.002    c28.471-21.379,63.128-34.938,100.757-37.485v49.117h25.896V80.422c37.629,2.549,72.286,16.107,100.758,37.486l-31.05,37.001    l19.838,16.646l30.816-36.726c25.303,25.012,43.627,57.066,51.754,92.948l-45.48,8.021l4.498,25.502l44.949-7.927    c0.461,5.388,0.711,10.834,0.711,16.338c0,31.103-7.521,60.479-20.842,86.409l-37.701-21.766l-12.947,22.427l29.318,16.927h40.088    c17.498-31.458,26.816-67.007,26.816-103.997C428.949,212.424,406.638,158.564,366.13,118.057z"/>
		</g>
	</symbol>
	<symbol id='icon-sales' viewBox="0 0 512 512">
		<g xmlns="http://www.w3.org/2000/svg">
			<path d="M512,254.847c0-12.13-3.501-23.886-10.126-33.998c-5.646-8.618-7.764-19.153-5.958-29.664    c1.98-11.533,0.65-23.365-3.846-34.217c-4.642-11.206-12.374-20.727-22.361-27.533c-8.401-5.725-14.433-14.838-16.983-25.66    c-2.64-11.201-8.353-21.439-16.524-29.609c-8.439-8.439-19.038-14.236-30.654-16.764c-10.521-2.291-19.66-8.284-25.733-16.875    c-6.753-9.557-16.061-16.985-26.916-21.481c-11.209-4.642-23.407-5.906-35.285-3.655c-10.122,1.917-20.666-0.158-29.686-5.847    C278.032,3.299,266.593,0,254.845,0c-12.13,0-23.887,3.501-33.998,10.125c-8.618,5.647-19.154,7.764-29.663,5.958    c-11.531-1.979-23.364-0.65-34.218,3.845c-11.206,4.643-20.726,12.375-27.532,22.362c-5.725,8.401-14.839,14.433-25.66,16.984    c-11.199,2.639-21.438,8.352-29.609,16.523C65.727,84.233,59.93,94.833,57.4,106.451c-2.29,10.519-8.283,19.658-16.876,25.732    c-9.558,6.756-16.985,16.063-21.481,26.917c-4.642,11.208-5.905,23.408-3.655,35.284c1.918,10.124-0.157,20.667-5.846,29.686    C3.299,233.965,0,245.405,0,257.154c0,12.13,3.501,23.886,10.126,33.998c5.646,8.618,7.764,19.153,5.958,29.664    c-1.98,11.533-0.65,23.365,3.846,34.217c4.642,11.206,12.374,20.727,22.361,27.533c8.401,5.725,14.433,14.838,16.983,25.66    c2.64,11.201,8.353,21.439,16.524,29.609c8.439,8.439,19.038,14.236,30.654,16.764c10.522,2.291,19.66,8.284,25.733,16.875    c6.753,9.557,16.061,16.985,26.916,21.481c11.208,4.643,23.408,5.906,35.286,3.655c10.121-1.919,20.666,0.158,29.685,5.847    c9.897,6.243,21.337,9.542,33.084,9.542c12.13,0,23.887-3.501,33.998-10.125c8.618-5.647,19.152-7.765,29.663-5.958    c11.533,1.979,23.364,0.651,34.218-3.845c11.206-4.643,20.726-12.375,27.532-22.362c5.725-8.401,14.839-14.433,25.66-16.984    c11.199-2.639,21.438-8.352,29.609-16.523c8.438-8.437,14.235-19.037,16.764-30.655c2.29-10.519,8.283-19.658,16.876-25.732    c9.558-6.756,16.985-16.063,21.481-26.917c4.642-11.208,5.905-23.408,3.655-35.284c-1.918-10.124,0.157-20.667,5.846-29.686    C508.701,278.035,512,266.595,512,254.847z M485.207,277.048c-8.451,13.4-11.518,29.155-8.636,44.367    c1.51,7.964,0.659,16.152-2.46,23.68c-3.019,7.289-8.001,13.536-14.408,18.065c-12.765,9.024-21.655,22.537-25.033,38.05    c-1.696,7.79-5.587,14.902-11.256,20.57c-5.488,5.488-12.357,9.324-19.865,11.093c-15.797,3.723-29.234,12.727-37.838,25.351    c-4.563,6.697-10.954,11.885-18.481,15.003c-7.29,3.019-15.227,3.914-22.96,2.586c-15.615-2.68-31.345,0.515-44.295,9    c-6.779,4.442-14.671,6.79-22.819,6.79c-7.89,0-15.568-2.212-22.203-6.397c-10.116-6.38-21.572-9.691-33.126-9.691    c-3.75,0-7.513,0.349-11.241,1.056c-7.969,1.508-16.154,0.658-23.683-2.46c-7.29-3.02-13.536-8.001-18.064-14.408    c-9.022-12.764-22.535-21.655-38.051-25.033c-7.788-1.696-14.901-5.588-20.569-11.257c-5.488-5.487-9.325-12.357-11.094-19.864    c-3.722-15.797-12.724-29.234-25.349-37.838c-6.697-4.564-11.885-10.955-15.004-18.483c-3.019-7.288-3.913-15.227-2.587-22.958    c2.681-15.614-0.515-31.345-8.999-44.294c-4.442-6.78-6.79-14.672-6.79-22.82c0-7.89,2.212-15.567,6.396-22.202    c8.451-13.4,11.518-29.155,8.636-44.367c-1.509-7.964-0.659-16.152,2.46-23.681c3.019-7.289,8.001-13.536,14.408-18.065    c12.765-9.024,21.655-22.537,25.033-38.05c1.696-7.79,5.587-14.902,11.256-20.57c5.488-5.488,12.357-9.324,19.865-11.093    c15.798-3.723,29.234-12.727,37.838-25.351c4.563-6.697,10.954-11.885,18.481-15.003c7.291-3.018,15.228-3.913,22.96-2.586    c15.613,2.68,31.345-0.515,44.295-9c6.779-4.442,14.671-6.79,22.819-6.79c7.89,0,15.568,2.212,22.205,6.396    c13.4,8.451,29.156,11.517,44.368,8.636c7.965-1.51,16.152-0.658,23.681,2.46c7.29,3.02,13.536,8.001,18.064,14.408    c9.022,12.764,22.535,21.655,38.051,25.033c7.788,1.696,14.901,5.588,20.569,11.257c5.488,5.487,9.325,12.357,11.094,19.864    c3.722,15.797,12.725,29.234,25.349,37.838c6.697,4.564,11.885,10.955,15.004,18.483c3.019,7.288,3.913,15.227,2.587,22.958    c-2.681,15.614,0.515,31.345,8.999,44.294c4.442,6.78,6.79,14.672,6.79,22.82C491.604,262.737,489.392,270.414,485.207,277.048z"/>
			<path d="M225.462,226.012v-47.383c0-27.167-18.006-37.275-40.75-37.275c-23.06,0-40.75,10.108-40.75,37.275v47.383     c0,27.167,17.69,37.276,40.75,37.275C207.456,263.287,225.462,253.179,225.462,226.012z M206.509,226.012     c0,13.899-8.214,20.533-21.797,20.533c-13.583,0-21.797-6.634-21.797-20.533v-47.383c0-13.899,8.213-20.533,21.797-20.533     c13.582,0,21.797,6.635,21.797,20.533V226.012z"/>
			<path d="M322.126,251.285c-23.06,0-40.75,10.108-40.75,37.275v47.383c0,27.167,17.69,37.275,40.75,37.275     c22.744,0,40.75-10.108,40.75-37.275V288.56C362.875,261.393,344.87,251.285,322.126,251.285z M343.922,335.942     c0,13.899-8.214,20.533-21.797,20.533c-13.583,0-21.797-6.634-21.797-20.533v-47.383c0-13.899,8.213-20.533,21.797-20.533     c13.582,0,21.797,6.634,21.797,20.533V335.942z"/>
			<path d="M323.388,139.458c0-6.001-5.685-10.425-10.739-10.424c-3.159,0-6.317,1.58-7.897,4.739l-118.46,234.392     c-0.632,1.263-0.949,2.842-0.949,4.106c0,5.055,4.422,9.477,10.108,9.477c3.791,0,7.266-1.58,8.845-5.055L322.441,143.88     C323.072,142.301,323.388,141.037,323.388,139.458z"/>
		</g>
	</symbol>
	<symbol id='icon-catalog' viewBox="0 0 512 512">
		<path d="M468.333-1H144.067H75.8C61.293-1,50.2,10.093,50.2,24.6v0.825c-19.681,3.86-34.133,20.878-34.133,41.841     c0,20.963,14.452,37.981,34.133,41.841v10.184c-19.681,3.86-34.133,20.878-34.133,41.841c0,20.963,14.452,37.981,34.133,41.841     v10.184c-19.681,3.86-34.133,20.878-34.133,41.841c0,20.963,14.452,37.981,34.133,41.841v10.184     c-19.681,3.86-34.133,20.878-34.133,41.841c0,20.963,14.452,37.981,34.133,41.841v10.184     c-19.681,3.86-34.133,20.878-34.133,41.841c0,20.963,14.452,37.981,34.133,41.841v0.825c0,14.507,11.093,25.6,25.6,25.6h68.267     h324.267c14.507,0,25.6-11.093,25.6-25.6V24.6C493.933,10.093,482.84-1,468.333-1z M33.133,67.267     c0-11.491,6.963-20.833,17.067-24.224v48.448C40.097,88.1,33.133,78.757,33.133,67.267z M33.133,161.133     c0-11.491,6.963-20.833,17.067-24.224v48.448C40.097,181.967,33.133,172.624,33.133,161.133z M33.133,255     c0-11.491,6.963-20.833,17.067-24.224v48.448C40.097,275.833,33.133,266.491,33.133,255z M33.133,348.867     c0-11.491,6.963-20.833,17.067-24.224v48.448C40.097,369.7,33.133,360.357,33.133,348.867z M33.133,442.733     c0-11.491,6.963-20.833,17.067-24.224v48.448C40.097,463.567,33.133,454.224,33.133,442.733z M67.267,485.4v-66.891     c10.103,3.391,17.067,12.734,17.067,24.224c0,5.12,3.413,8.533,8.533,8.533s8.533-3.413,8.533-8.533     c0-20.963-14.452-37.981-34.133-41.841v-76.25c10.103,3.391,17.067,12.734,17.067,24.224c0,5.12,3.413,8.533,8.533,8.533     s8.533-3.413,8.533-8.533c0-20.963-14.452-37.981-34.133-41.841v-76.25C77.37,234.167,84.333,243.509,84.333,255     c0,5.12,3.413,8.533,8.533,8.533S101.4,260.12,101.4,255c0-20.963-14.452-37.981-34.133-41.841v-76.25     c10.103,3.391,17.067,12.734,17.067,24.224c0,5.12,3.413,8.533,8.533,8.533s8.533-3.413,8.533-8.533     c0-20.963-14.452-37.981-34.133-41.841v-76.25c10.103,3.391,17.067,12.734,17.067,24.224c0,5.12,3.413,8.533,8.533,8.533     s8.533-3.413,8.533-8.533c0-20.963-14.452-37.981-34.133-41.841V24.6c0-5.12,3.413-8.533,8.533-8.533h59.733v477.867H75.8     C70.68,493.933,67.267,490.52,67.267,485.4z M476.867,485.4c0,5.12-3.413,8.533-8.533,8.533H152.6V16.067h315.733     c5.12,0,8.533,3.413,8.533,8.533V485.4z"/>
		<path d="M240.493,184.173c1.707,1.707,3.413,2.56,5.973,2.56s4.267-0.853,5.973-2.56l2.56-2.56V229.4     c0,5.12,3.413,8.533,8.533,8.533h102.4c5.12,0,8.533-3.413,8.533-8.533v-47.787l2.56,2.56c1.707,1.707,3.413,2.56,5.973,2.56     s4.267-0.853,5.973-2.56l25.6-25.6c1.707-1.707,2.56-3.413,2.56-5.973c0-2.56-0.853-4.267-2.56-5.973L320.707,52.76     c-1.707-1.707-3.413-2.56-5.973-2.56s-4.267,0.853-5.973,2.56l-93.867,93.867c-3.413,3.413-3.413,8.533,0,11.947L240.493,184.173     z M357.4,220.867h-85.333v-56.32l42.667-42.667l42.667,42.667V220.867z M314.733,70.68l81.92,81.92L383,166.253l-11.092-11.092     c0,0-0.001-0.001-0.001-0.001l-51.2-51.2c-0.853-1.707-2.56-2.56-4.267-2.56c0,0-0.853,0-1.707,0c-2.56,0-4.267,0.853-5.973,2.56     l-51.2,51.2c0,0-0.001,0.001-0.001,0.001l-11.092,11.092L232.813,152.6L314.733,70.68z"/>
		<path d="M195.267,323.267H280.6c5.12,0,8.533-3.413,8.533-8.533s-3.413-8.533-8.533-8.533h-85.333     c-5.12,0-8.533,3.413-8.533,8.533S190.147,323.267,195.267,323.267z"/>
		<path d="M314.733,306.2c-5.12,0-8.533,3.413-8.533,8.533s3.413,8.533,8.533,8.533h59.733c5.12,0,8.533-3.413,8.533-8.533     s-3.413-8.533-8.533-8.533H314.733z"/>
		<path d="M434.2,306.2h-25.6c-5.12,0-8.533,3.413-8.533,8.533s3.413,8.533,8.533,8.533h25.6c5.12,0,8.533-3.413,8.533-8.533     S439.32,306.2,434.2,306.2z"/>
		<path d="M434.2,357.4h-59.733c-5.12,0-8.533,3.413-8.533,8.533s3.413,8.533,8.533,8.533H434.2c5.12,0,8.533-3.413,8.533-8.533     S439.32,357.4,434.2,357.4z"/>
		<path d="M348.867,365.933c0-5.12-3.413-8.533-8.533-8.533h-68.267c-5.12,0-8.533,3.413-8.533,8.533s3.413,8.533,8.533,8.533     h68.267C345.453,374.467,348.867,371.053,348.867,365.933z"/>
		<path d="M195.267,374.467h42.667c5.12,0,8.533-3.413,8.533-8.533s-3.413-8.533-8.533-8.533h-42.667     c-5.12,0-8.533,3.413-8.533,8.533S190.147,374.467,195.267,374.467z"/>
		<path d="M255,408.6h-59.733c-5.12,0-8.533,3.413-8.533,8.533s3.413,8.533,8.533,8.533H255c5.12,0,8.533-3.413,8.533-8.533     S260.12,408.6,255,408.6z"/>
		<path d="M365.933,408.6h-76.8c-5.12,0-8.533,3.413-8.533,8.533s3.413,8.533,8.533,8.533h76.8c5.12,0,8.533-3.413,8.533-8.533     S371.053,408.6,365.933,408.6z"/>
		<path d="M434.2,408.6h-34.133c-5.12,0-8.533,3.413-8.533,8.533s3.413,8.533,8.533,8.533H434.2c5.12,0,8.533-3.413,8.533-8.533     S439.32,408.6,434.2,408.6z"/>
	</symbol>
	<symbol id='icon-customers' viewBox="0 0 512 512">
		<g>
			<g>
				<path d="M118.195,318.012c-26.595,0-48.232,21.636-48.232,48.232c0,26.595,21.637,48.232,48.232,48.232    c26.595,0,48.232-21.637,48.232-48.232C166.427,339.649,144.79,318.012,118.195,318.012z M118.195,398.576    c-17.827,0-32.331-14.505-32.331-32.331s14.505-32.331,32.331-32.331s32.331,14.505,32.331,32.331    S136.021,398.576,118.195,398.576z"/>
			</g>
		</g>
		<g>
			<g>
				<path d="M116.075,416.452c-32.772,0-59.434,26.661-59.434,59.433v28.164c0,4.392,3.56,7.95,7.95,7.95h102.366    c4.325,0,7.856-3.457,7.948-7.781l0.602-28.163c0.001-0.056,0.002-0.112,0.002-0.17    C175.509,443.114,148.847,416.452,116.075,416.452z M159.175,496.099H72.541v-20.213c0-24.005,19.529-43.533,43.534-43.533    c23.977,0,43.488,19.485,43.534,43.45L159.175,496.099z"/>
			</g>
		</g>
		<g>
			<g>
				<path d="M393.805,318.012c-26.595,0-48.232,21.636-48.232,48.232c0,26.595,21.637,48.232,48.232,48.232    c26.595,0,48.232-21.637,48.232-48.232C442.037,339.649,420.401,318.012,393.805,318.012z M393.805,398.576    c-17.827,0-32.331-14.505-32.331-32.331s14.505-32.331,32.331-32.331c17.827,0,32.331,14.505,32.331,32.331    S411.632,398.576,393.805,398.576z"/>
			</g>
		</g>
		<g>
			<g>
				<path d="M395.925,416.452c-32.772,0-59.434,26.661-59.434,59.433c0,0.057,0.001,0.113,0.002,0.17l0.602,28.163    c0.092,4.324,3.623,7.781,7.948,7.781H447.41c4.392,0,7.95-3.559,7.95-7.95v-28.163    C455.36,443.114,428.698,416.452,395.925,416.452z M352.824,496.099l-0.434-20.294c0.042-23.969,19.556-43.452,43.534-43.452    c24.006,0,43.534,19.529,43.534,43.533v20.214H352.824z"/>
			</g>
		</g>
		<g>
			<g>
				<path d="M257.518,318.012c-26.595,0-48.232,21.636-48.232,48.232c0,26.595,21.636,48.232,48.232,48.232    c26.595,0,48.232-21.637,48.232-48.232C305.75,339.649,284.113,318.012,257.518,318.012z M257.518,398.576    c-17.827,0-32.331-14.505-32.331-32.331s14.505-32.331,32.331-32.331c17.827,0,32.331,14.505,32.331,32.331    S275.345,398.576,257.518,398.576z"/>
			</g>
		</g>
		<g>
			<g>
				<path d="M255.398,416.452c-32.772,0-59.433,26.661-59.433,59.433v28.164c0,4.392,3.559,7.95,7.95,7.95H306.28    c4.325,0,7.856-3.457,7.948-7.781l0.602-28.163c0.001-0.056,0.002-0.112,0.002-0.17    C314.832,443.114,288.17,416.452,255.398,416.452z M298.498,496.099h-86.633v-20.213c0-24.005,19.529-43.533,43.533-43.533    c23.977,0,43.488,19.485,43.534,43.45L298.498,496.099z"/>
			</g>
		</g>
		<g>
			<g>
				<path d="M316.174,83.004c-0.533-3.304-1.348-6.589-2.422-9.762c-1.409-4.161-5.925-6.39-10.08-4.982    c-4.161,1.409-6.392,5.921-4.983,10.08c0.793,2.341,1.393,4.763,1.787,7.199c0.631,3.906,4.006,6.685,7.84,6.685    c0.42,0,0.847-0.033,1.276-0.103C313.927,91.421,316.874,87.34,316.174,83.004z"/>
			</g>
		</g>
		<g>
			<g>
				<path d="M302.799,53.735C291.158,39.796,274.1,31.801,256,31.801c-4.392,0-7.95,3.559-7.95,7.95c0,4.392,3.559,7.95,7.95,7.95    c13.373,0,25.983,5.914,34.593,16.226c1.572,1.883,3.831,2.854,6.107,2.854c1.797,0,3.604-0.605,5.092-1.848    C305.163,62.12,305.613,57.105,302.799,53.735z"/>
			</g>
		</g>
		<g>
			<g>
				<path d="M387.445,267.13H263.95V244.87h25.971c4.392,0,7.95-3.559,7.95-7.95v-29.681v-29.681c0-0.667-0.091-1.311-0.246-1.931    c30.297-15.279,51.128-46.686,51.128-82.872C348.754,41.609,307.145,0,256,0c-51.145,0-92.754,41.609-92.754,92.754    c0,36.186,20.831,67.593,51.128,82.872c-0.155,0.619-0.246,1.264-0.246,1.931v29.681v29.681c0,4.392,3.559,7.95,7.95,7.95h25.971    v22.261H116.075c-4.392,0-7.95,3.559-7.95,7.95v21.201c0,4.392,3.559,7.95,7.95,7.95c4.392,0,7.95-3.559,7.95-7.95v-13.25H248.05    v13.25c0,4.392,3.559,7.95,7.95,7.95c4.392,0,7.95-3.559,7.95-7.95v-13.25h115.544v13.25c0,4.392,3.559,7.95,7.95,7.95    c4.392,0,7.95-3.559,7.95-7.95v-21.201C395.395,270.689,391.837,267.13,387.445,267.13z M281.971,199.288h-51.942v-13.781H256    h25.971V199.288z M242.75,168.44v-59.255h26.501v59.255c-4.308,0.753-8.731,1.167-13.251,1.167S247.057,169.192,242.75,168.44z     M226.849,88.513v4.77h-9.01c-4.392,0-7.95,3.559-7.95,7.95c0,4.392,3.559,7.95,7.95,7.95h9.01v54.663    c-27.96-11.507-47.702-39.033-47.702-71.094c0-42.377,34.476-76.853,76.853-76.853s76.853,34.476,76.853,76.853    c0,32.062-19.742,59.587-47.702,71.094v-54.663h9.01c4.392,0,7.95-3.559,7.95-7.95c0-4.392-3.559-7.95-7.95-7.95h-9.01v-4.77    c0-4.392-3.559-7.95-7.95-7.95c-4.392,0-7.95,3.559-7.95,7.95v4.77H242.75v-4.77c0-4.392-3.559-7.95-7.95-7.95    C230.407,80.563,226.849,84.122,226.849,88.513z M256,228.969h-25.971v-13.781h51.942v13.781H256z"/>
			</g>
		</g>
		<g>
			<g>
				<path d="M128.036,59.438h-32.98c-4.392,0-7.95,3.559-7.95,7.95c0,4.392,3.559,7.95,7.95,7.95h32.98c4.392,0,7.95-3.559,7.95-7.95    C135.986,62.996,132.428,59.438,128.036,59.438z"/>
			</g>
		</g>
		<g>
			<g>
				<path d="M142.867,88.751c-3.106-3.104-8.139-3.104-11.245,0l-20.988,20.988c-3.105,3.106-3.105,8.139,0,11.244    c1.553,1.552,3.588,2.328,5.622,2.328c2.034,0,4.07-0.776,5.622-2.328l20.988-20.988    C145.972,96.889,145.972,91.856,142.867,88.751z"/>
			</g>
		</g>
		<g>
			<g>
				<path d="M142.654,34.782l-20.988-20.988c-3.106-3.104-8.139-3.104-11.244,0c-3.105,3.106-3.105,8.139,0,11.244l20.987,20.988    c1.553,1.552,3.588,2.328,5.622,2.328s4.07-0.776,5.622-2.328C145.759,42.92,145.759,37.887,142.654,34.782z"/>
			</g>
		</g>
		<g>
			<g>
				<path d="M425.424,59.438h-32.98c-4.392,0-7.95,3.56-7.95,7.95c0,4.392,3.559,7.95,7.95,7.95h32.98c4.392,0,7.95-3.559,7.95-7.95    C433.375,62.996,429.816,59.438,425.424,59.438z"/>
			</g>
		</g>
		<g>
			<g>
				<path d="M409.846,109.739l-20.988-20.988c-3.106-3.104-8.139-3.104-11.244,0c-3.105,3.106-3.105,8.139,0,11.244l20.987,20.988    c1.553,1.552,3.588,2.328,5.622,2.328c2.034,0,4.069-0.776,5.622-2.328C412.951,117.877,412.951,112.844,409.846,109.739z"/>
			</g>
		</g>
		<g>
			<g>
				<path d="M410.059,13.794c-3.106-3.104-8.139-3.104-11.244,0l-20.988,20.988c-3.105,3.106-3.105,8.139,0,11.244    c1.553,1.552,3.587,2.328,5.621,2.328s4.07-0.776,5.622-2.328l20.988-20.988C413.164,21.932,413.164,16.899,410.059,13.794z"/>
			</g>
		</g>
	</symbol>
	<symbol id='icon-cms' viewBox="0 0 25.913 25.913">
		<path xmlns="http://www.w3.org/2000/svg" d="M0.033,3.481c0-1.913,1.551-3.467,3.466-3.467C5.222,0.016,6.652,1.273,6.92,2.92   c1.87-0.439,3.917,0.071,5.375,1.529l0.199,0.2L9.936,7.207L9.738,7.008c-0.83-0.83-2.176-0.83-3.007,0.001   c-0.833,0.832-0.832,2.182-0.004,3.01l0.501,0.5l2.558,2.556l2.706,2.704l-2.556,2.559l-2.708-2.706l-2.559-2.557L4.17,12.576   C2.624,11.03,2.146,8.822,2.732,6.864C1.187,6.515,0.033,5.134,0.033,3.481z M7.531,10.215l2.558,2.557l2.707-2.703l2.558-2.557   l0.5-0.499c0.833-0.833,2.176-0.832,3.003-0.004c0.83,0.829,0.83,2.176-0.001,3.006l-0.197,0.199l2.557,2.558l0.199-0.2   c1.529-1.531,2.016-3.709,1.457-5.652c1.699-0.223,3.01-1.677,3.01-3.438c0.001-1.914-1.551-3.467-3.466-3.467   c-1.752,0-3.201,1.301-3.435,2.989c-1.95-0.572-4.145-0.088-5.684,1.45l-0.5,0.498L10.238,7.51L7.531,10.215z M22.934,18.999   c0.459-1.882-0.049-3.952-1.52-5.422l-0.502-0.503l-2.557-2.558l-2.699-2.702l-2.559,2.556l2.701,2.704l2.557,2.558l0.5,0.501   c0.834,0.834,0.832,2.177,0.005,3.004c-0.83,0.83-2.177,0.83-3.007-0.001l-0.197-0.196L13.1,21.5l0.196,0.195   c1.557,1.556,3.786,2.032,5.754,1.428c0.319,1.584,1.719,2.775,3.396,2.775c1.914,0,3.467-1.552,3.467-3.467   C25.914,20.682,24.619,19.235,22.934,18.999z M18.053,15.935l-2.557-2.558l-2.701,2.704l-2.557,2.557l-0.5,0.501   c-0.828,0.829-2.177,0.83-3.01-0.003c-0.83-0.831-0.831-2.176-0.001-3.007l0.198-0.196l-2.559-2.556L4.17,13.571   c-1.487,1.487-1.988,3.586-1.504,5.484C1.138,19.415,0,20.789,0,22.429c0,1.914,1.552,3.467,3.467,3.467   c1.647-0.002,3.026-1.148,3.379-2.689c1.89,0.469,3.973-0.033,5.45-1.51l0.501-0.502l2.556-2.56L18.053,15.935z"/>
	</symbol>
	<symbol id='icon-seo' viewBox="0 0 490.12 490.12">
			<g>
				<path d="M84.01,87.556c86.8-88.8,229.6-90.5,318.4-3.7l-25.3,0.3c-5.5,0.1-9.8,4.5-9.8,10    c0.1,5.4,4.5,9.8,9.9,9.8h0.1l49.2-0.6c5.5-0.1,9.8-4.5,9.8-10l-0.6-49.2c-0.1-5.5-4.5-9.9-10-9.8s-9.8,4.5-9.8,10l0.3,25.3    c-96.6-94.4-252-92.5-346.4,4.1c-32.7,33.5-55.1,75.3-64.6,121c-9.3,44.5-6.1,90.5,9.2,133.2c1.5,4,5.3,6.6,9.3,6.6    c1.1,0,2.2-0.2,3.3-0.6c5.1-1.8,7.8-7.5,6-12.7C3.71,239.356,23.21,149.756,84.01,87.556z"/>
				<path d="M73.91,420.356c46.1,45,106.8,69.7,171.1,69.7c1,0,1.9,0,2.9,0c65.5-0.8,126.7-26.9,172.4-73.8    c32.8-33.5,55.1-75.4,64.6-121.1c9.3-44.5,6.1-90.5-9.2-133.2c-1.8-5.1-7.5-7.8-12.7-6c-5.1,1.8-7.8,7.5-6,12.7    c29.4,81.9,9.9,171.5-50.9,233.7c-42.1,43-98.3,67.1-158.5,67.8c-60.1,0.7-116.9-22.1-159.9-64.1l25.3-0.3c5.5-0.1,9.8-4.5,9.8-10    c-0.1-5.4-4.5-9.8-9.9-9.8h-0.1l-49.2,0.6c-2.6,0-5.1,1.1-7,3c-1.8,1.9-2.8,4.4-2.8,7l0.6,49.2c0.1,5.4,4.5,9.8,9.9,9.8h0.1    c5.5-0.1,9.8-4.5,9.8-10L73.91,420.356z"/>
				<path d="M382.01,188.156c-21.9-52.7-71.5-87.7-127.9-91.1c-1-0.1-2.1-0.1-3.2-0.2c-0.1,0-0.3,0-0.4,0    c-0.6,0-1.2-0.1-1.8-0.1c-0.1,0-0.2,0-0.3,0c-1.1,0-2.2-0.1-3.4-0.1c-19.5,0-38.5,3.8-56.6,11.3c-36.6,15.1-65.1,43.6-80.2,80.2    c-15.2,36.6-15.2,76.9,0,113.4c23,55.6,76.8,91.6,137,91.6c0.8,0,1.5,0,2.3-0.1c0.4,0,0.9,0.1,1.3,0.1c0.2,0,0.4,0,0.5-0.1    c0.9,0,1.7-0.1,2.6-0.1c0.3,0,0.6,0,1,0c0.3,0,0.5,0,0.8-0.1c16.5-0.9,32.7-4.6,48.2-11c36.6-15.1,65.1-43.6,80.2-80.2    s15.2-76.9,0-113.4C382.01,188.256,382.01,188.256,382.01,188.156C382.01,188.256,382.01,188.256,382.01,188.156z M193.41,127.456    c-11,14.3-19.8,33-25.6,54.7h-34.7C146.61,157.956,167.61,138.856,193.41,127.456z M124.11,202.056h39.4    c-2.3,13.5-3.5,27.9-3.5,43c0,14.9,1.3,29.4,3.8,43h-39.7C114.11,260.056,114.11,229.956,124.11,202.056z M133.11,307.756h35.3    c6.2,22.1,15.6,41.2,27.1,55.8C169.31,352.556,147.21,333.156,133.11,307.756z M238.81,371.956c-20.7-6.1-39.1-30.9-49.6-64.2    h49.6V371.956L238.81,371.956z M238.81,287.956h-54.7c-2.8-13.6-4.3-28.1-4.3-43c0-15.1,1.4-29.6,3.8-43h55.2V287.956z     M238.81,182.256h-50.5c10.1-34.4,28.5-58.7,50.5-64.3V182.256z M357.11,182.156h-27.5c-5.1-19.1-12.4-35.8-21.6-49.2    C328.31,144.356,345.41,161.256,357.11,182.156z M258.61,117.856c22,5.7,40.3,30,50.5,64.3h-50.5V117.856z M258.61,202.056h55.2    c2.5,13.4,3.8,27.8,3.8,43c0,14.9-1.5,29.4-4.3,43h-54.7V202.056z M258.61,371.956v-64.2h49.6    C297.71,341.056,279.31,365.856,258.61,371.956z M306.01,358.056c9.7-13.7,17.6-30.9,23.1-50.3h28    C345.21,329.156,327.61,346.456,306.01,358.056z M366.11,287.956h-32.5c2.5-13.6,3.8-28,3.8-43c0-15.1-1.2-29.5-3.5-43h32.2    C376.11,229.956,376.11,260.056,366.11,287.956z"/>
			</g>
	</symbol>
	<symbol id='icon-report' viewBox="0 0 60 60">
		<path d="M31,16H17v14h14V16z M29,28H19V18h10V28z"/>
		<path d="M52,16H36c-0.553,0-1,0.447-1,1s0.447,1,1,1h16c0.553,0,1-0.447,1-1S52.553,16,52,16z"/>
		<path d="M52,22H36c-0.553,0-1,0.447-1,1s0.447,1,1,1h16c0.553,0,1-0.447,1-1S52.553,22,52,22z"/>
		<path d="M52,28H36c-0.553,0-1,0.447-1,1s0.447,1,1,1h16c0.553,0,1-0.447,1-1S52.553,28,52,28z"/>
		<path d="M52,34H19c-0.553,0-1,0.447-1,1s0.447,1,1,1h33c0.553,0,1-0.447,1-1S52.553,34,52,34z"/>
		<path d="M34,40H19c-0.553,0-1,0.447-1,1s0.447,1,1,1h15c0.553,0,1-0.447,1-1S34.553,40,34,40z"/>
		<path d="M34,46H19c-0.553,0-1,0.447-1,1s0.447,1,1,1h15c0.553,0,1-0.447,1-1S34.553,46,34,46z"/>
		<path d="M34,52H19c-0.553,0-1,0.447-1,1s0.447,1,1,1h15c0.553,0,1-0.447,1-1S34.553,52,34,52z"/>
		<path d="M39,54h14V40H39V54z M41,42h10v10H41V42z"/>
		<path d="M59,13c0-0.017-0.009-0.031-0.01-0.048V0H11v30H1v24c0,3.309,2.691,6,6,6h46c3.303,0,5.99-2.688,5.99-5.99V13.048   C58.991,13.031,59,13.017,59,13z M56.99,2v10H13V2H56.99z M3,54V32h8v22c0,2.206-1.794,4-4,4S3,56.206,3,54z M53,58H11.469   c0.016-0.018,0.027-0.039,0.042-0.057c0.204-0.233,0.39-0.482,0.556-0.745c0.027-0.042,0.052-0.084,0.078-0.128   c0.162-0.27,0.305-0.552,0.423-0.848c0.016-0.041,0.03-0.082,0.045-0.123c0.115-0.306,0.209-0.622,0.273-0.949   c0.006-0.03,0.008-0.061,0.014-0.09C12.962,54.716,13,54.362,13,54V30V14h43.99v40.01C56.99,56.21,55.2,58,53,58z"/>
		<path d="M47,4H23v6h24V4z M45,8H25V6h20V8z"/>
	</symbol>
	<symbol id='icon-modules' viewBox="0 0 475.082 475.082">
		<path xmlns="http://www.w3.org/2000/svg" d="M461.667,31.691c-8.949-8.945-19.698-13.417-32.265-13.417H45.682c-12.562,0-23.317,4.471-32.264,13.417   C4.473,40.638,0,51.389,0,63.952v347.173c0,12.566,4.473,23.318,13.418,32.264c8.947,8.946,19.701,13.419,32.264,13.419h383.72   c12.566,0,23.315-4.473,32.265-13.419c8.945-8.945,13.415-19.697,13.415-32.264V63.952   C475.082,51.389,470.612,40.638,461.667,31.691z M219.271,420.266H45.682c-2.474,0-4.615-0.907-6.423-2.707   c-1.809-1.811-2.712-3.949-2.712-6.427V91.367h182.725V420.266z M438.536,411.125c0,2.478-0.903,4.62-2.71,6.427   c-1.813,1.807-3.949,2.71-6.427,2.71H255.813V91.36h182.729v319.765H438.536z"/>
	</symbol>
	<symbol id='icon-settings' viewBox="0 0 932.179 932.179">
		<g xmlns="http://www.w3.org/2000/svg">
			<path d="M61.2,341.538c4.9,16.8,11.7,33,20.3,48.2l-24.5,30.9c-8,10.1-7.1,24.5,1.9,33.6l42.2,42.2c9.1,9.1,23.5,9.899,33.6,1.899   l30.7-24.3c15.8,9.101,32.6,16.2,50.1,21.2l4.6,39.5c1.5,12.8,12.3,22.4,25.1,22.4h59.7c12.8,0,23.6-9.601,25.1-22.4l4.4-38.1   c18.8-4.9,36.8-12.2,53.7-21.7l29.7,23.5c10.1,8,24.5,7.1,33.6-1.9l42.2-42.2c9.1-9.1,9.9-23.5,1.9-33.6l-23.1-29.3   c9.6-16.601,17.1-34.3,22.1-52.8l35.6-4.1c12.801-1.5,22.4-12.3,22.4-25.1v-59.7c0-12.8-9.6-23.6-22.4-25.1l-35.1-4.1   c-4.801-18.3-12-35.8-21.199-52.2l21.6-27.3c8-10.1,7.1-24.5-1.9-33.6l-42.1-42.1c-9.1-9.1-23.5-9.9-33.6-1.9l-26.5,21   c-17.2-10.1-35.601-17.8-54.9-23l-4-34.3c-1.5-12.8-12.3-22.4-25.1-22.4h-59.7c-12.8,0-23.6,9.6-25.1,22.4l-4,34.3   c-19.8,5.3-38.7,13.3-56.3,23.8l-27.5-21.8c-10.1-8-24.5-7.1-33.6,1.9l-42.2,42.2c-9.1,9.1-9.9,23.5-1.9,33.6l23,29.1   c-9.2,16.6-16.2,34.3-20.8,52.7l-36.8,4.2c-12.8,1.5-22.4,12.3-22.4,25.1v59.7c0,12.8,9.6,23.6,22.4,25.1L61.2,341.538z    M277.5,180.038c54.4,0,98.7,44.3,98.7,98.7s-44.3,98.7-98.7,98.7c-54.399,0-98.7-44.3-98.7-98.7S223.1,180.038,277.5,180.038z"/>
			<path d="M867.699,356.238l-31.5-26.6c-9.699-8.2-24-7.8-33.199,0.9l-17.4,16.3c-14.699-7.1-30.299-12.1-46.4-15l-4.898-24   c-2.5-12.4-14-21-26.602-20l-41.1,3.5c-12.6,1.1-22.5,11.4-22.9,24.1l-0.799,24.4c-15.801,5.7-30.701,13.5-44.301,23.3   l-20.799-13.8c-10.602-7-24.701-5-32.9,4.7l-26.6,31.7c-8.201,9.7-7.801,24,0.898,33.2l18.201,19.399   c-6.301,14.2-10.801,29.101-13.4,44.4l-26,5.3c-12.4,2.5-21,14-20,26.601l3.5,41.1c1.1,12.6,11.4,22.5,24.1,22.9l28.1,0.899   c5.102,13.4,11.801,26.101,19.9,38l-15.699,23.7c-7,10.6-5,24.7,4.699,32.9l31.5,26.6c9.701,8.2,24,7.8,33.201-0.9l20.6-19.3   c13.5,6.3,27.699,11,42.299,13.8l5.701,28.2c2.5,12.4,14,21,26.6,20l41.1-3.5c12.6-1.1,22.5-11.399,22.9-24.1l0.9-27.601   c15-5.3,29.199-12.5,42.299-21.399l22.701,15c10.6,7,24.699,5,32.9-4.7l26.6-31.5c8.199-9.7,7.799-24-0.9-33.2l-18.301-19.399   c6.701-14.2,11.602-29.2,14.4-44.601l25-5.1c12.4-2.5,21-14,20-26.601l-3.5-41.1c-1.1-12.6-11.4-22.5-24.1-22.9l-25.1-0.8   c-5.201-14.6-12.201-28.399-20.9-41.2l13.699-20.6C879.4,378.638,877.4,364.438,867.699,356.238z M712.801,593.837   c-44.4,3.801-83.602-29.3-87.301-73.699c-3.801-44.4,29.301-83.601,73.699-87.301c44.4-3.8,83.602,29.301,87.301,73.7   C790.301,550.938,757.199,590.138,712.801,593.837z"/>
			<path d="M205,704.438c-12.6,1.3-22.3,11.899-22.4,24.6l-0.3,25.3c-0.2,12.7,9.2,23.5,21.8,25.101l18.6,2.399   c3.1,11.301,7.5,22.101,13.2,32.301l-12,14.8c-8,9.899-7.4,24.1,1.5,33.2l17.7,18.1c8.9,9.1,23.1,10.1,33.2,2.3l14.899-11.5   c10.5,6.2,21.601,11.101,33.2,14.5l2,19.2c1.3,12.6,11.9,22.3,24.6,22.4l25.301,0.3c12.699,0.2,23.5-9.2,25.1-21.8l2.3-18.2   c12.601-3.101,24.601-7.8,36-14l14,11.3c9.9,8,24.101,7.4,33.201-1.5l18.1-17.7c9.1-8.899,10.1-23.1,2.301-33.2L496.6,818.438   c6.6-11,11.701-22.7,15.201-35l16.6-1.7c12.6-1.3,22.299-11.9,22.4-24.6l0.299-25.301c0.201-12.699-9.199-23.5-21.799-25.1   l-16.201-2.1c-3.1-12.2-7.699-24-13.699-35l10.1-12.4c8-9.9,7.4-24.1-1.5-33.2l-17.699-18.1c-8.9-9.101-23.102-10.101-33.201-2.3   l-12.101,9.3c-11.399-6.9-23.6-12.2-36.399-15.8l-1.601-15.7c-1.3-12.601-11.899-22.3-24.6-22.4l-25.3-0.3   c-12.7-0.2-23.5,9.2-25.101,21.8l-2,15.601c-13.199,3.399-25.899,8.6-37.699,15.399l-12.5-10.2c-9.9-8-24.101-7.399-33.201,1.5   l-18.2,17.801c-9.1,8.899-10.1,23.1-2.3,33.199l10.7,13.801c-6.2,11-11.1,22.699-14.3,35L205,704.438z M368.3,675.837   c36.3,0.4,65.399,30.301,65,66.601c-0.4,36.3-30.301,65.399-66.601,65c-36.3-0.4-65.399-30.3-65-66.601   C302.1,704.538,332,675.438,368.3,675.837z"/>
		</g>
	</symbol>

	<symbol id="nav-arrow" viewBox="0 0 8 9">
		<g transform="translate(1.000000, 1.000000)">
			<polyline transform="translate(3.505737, 3.503174) rotate(-180.000000) translate(-3.505737, -3.503174) " points="6.72906494 6.5378418 0.282409668 3.50834888 6.72906494 0.468505859"/>
			<path stroke="transparent"  d="M7.62646484,0 L7.62646484,7" transform="translate(3.813232, 3.500000) rotate(-180.000000) translate(-3.813232, -3.500000) " />
		</g>
	</symbol>
	<symbol id='icon-notification' viewBox="0 0 510 510">
		<g>
			<path d="M255,510c28.05,0,51-22.95,51-51H204C204,487.05,226.95,510,255,510z M420.75,357V216.75
					 c0-79.05-53.55-142.8-127.5-160.65V38.25C293.25,17.85,275.4,0,255,0c-20.4,0-38.25,17.85-38.25,38.25V56.1
					 c-73.95,17.85-127.5,81.6-127.5,160.65V357l-51,51v25.5h433.5V408L420.75,357z"/>
		</g>
	</symbol>
	<symbol id='icon-star' viewBox="0 0 49.94 49.94">
		<path xmlns="http://www.w3.org/2000/svg" d="M48.856,22.73c0.983-0.958,1.33-2.364,0.906-3.671c-0.425-1.307-1.532-2.24-2.892-2.438l-12.092-1.757  c-0.515-0.075-0.96-0.398-1.19-0.865L28.182,3.043c-0.607-1.231-1.839-1.996-3.212-1.996c-1.372,0-2.604,0.765-3.211,1.996  L16.352,14c-0.23,0.467-0.676,0.79-1.191,0.865L3.069,16.622c-1.359,0.197-2.467,1.131-2.892,2.438  c-0.424,1.307-0.077,2.713,0.906,3.671l8.749,8.528c0.373,0.364,0.544,0.888,0.456,1.4L8.224,44.701  c-0.183,1.06,0.095,2.091,0.781,2.904c1.066,1.267,2.927,1.653,4.415,0.871l10.814-5.686c0.452-0.237,1.021-0.235,1.472,0  l10.815,5.686c0.526,0.277,1.087,0.417,1.666,0.417c1.057,0,2.059-0.47,2.748-1.288c0.687-0.813,0.964-1.846,0.781-2.904  l-2.065-12.042c-0.088-0.513,0.083-1.036,0.456-1.4L48.856,22.73z" />
	</symbol>
	<symbol id='icon-filter' viewBox="0 0 612.006 612.006">
		<g xmlns="http://www.w3.org/2000/svg">
			<path d="M292.911,318.872H14.833C6.639,318.872,0,312.232,0,304.04c0-8.194,6.639-14.833,14.833-14.833h278.078     c8.194,0,14.833,6.639,14.833,14.833C307.744,312.232,301.105,318.872,292.911,318.872z"/>
			<path d="M597.167,318.872H449.638c-8.193,0-14.833-6.64-14.833-14.833c0-8.194,6.64-14.833,14.833-14.833h147.529     c8.193,0,14.833,6.639,14.833,14.833C612,312.232,605.36,318.872,597.167,318.872z"/>
			<path d="M214.545,506.712H14.833C6.639,506.712,0,500.072,0,491.88c0-8.193,6.639-14.834,14.833-14.834h199.712     c8.194,0,14.833,6.641,14.833,14.834C229.378,500.072,222.739,506.712,214.545,506.712z"/>
			<path d="M597.167,506.712H371.266c-8.193,0-14.833-6.64-14.833-14.833c0-8.192,6.64-14.833,14.833-14.833h225.901     c8.193,0,14.833,6.641,14.833,14.833C612,500.072,605.36,506.712,597.167,506.712z"/>
			<path d="M129.368,134.96H14.833C6.639,134.96,0,128.32,0,120.127s6.639-14.833,14.833-14.833h114.535     c8.193,0,14.833,6.639,14.833,14.833S137.562,134.96,129.368,134.96z"/>
			<path d="M597.167,134.96H286.1c-8.194,0-14.833-6.639-14.833-14.833s6.639-14.833,14.833-14.833h311.073     c8.193,0,14.833,6.639,14.833,14.833C612,128.32,605.36,134.96,597.167,134.96z"/>
			<path d="M175.635,181.215c-33.695,0-61.101-27.406-61.101-61.1c0-33.683,27.406-61.089,61.101-61.089     c33.683,0,61.088,27.406,61.088,61.089C236.718,153.81,209.312,181.215,175.635,181.215z M175.635,88.693     c-17.331,0-31.434,14.097-31.434,31.422c0,17.331,14.103,31.434,31.434,31.434c17.325,0,31.422-14.104,31.422-31.434     C207.052,102.791,192.954,88.693,175.635,88.693z"/>
			<path d="M257.709,552.979c-33.695,0-61.1-27.406-61.1-61.102c0-33.688,27.405-61.095,61.1-61.095     c33.689,0,61.094,27.406,61.094,61.095C318.798,525.573,291.393,552.979,257.709,552.979z M257.709,460.45     c-17.331,0-31.434,14.099-31.434,31.43c0,17.33,14.103,31.435,31.434,31.435s31.428-14.104,31.428-31.435     C289.137,474.549,275.035,460.45,257.709,460.45z"/>
			<path d="M339.173,365.121c-33.689,0-61.095-27.404-61.095-61.094c0-33.683,27.406-61.089,61.095-61.089     c33.688,0,61.094,27.406,61.094,61.089C400.267,337.716,372.861,365.121,339.173,365.121z M339.173,272.605     c-17.331,0-31.429,14.097-31.429,31.422c0,17.331,14.098,31.428,31.429,31.428s31.428-14.097,31.428-31.428     C370.601,286.702,356.504,272.605,339.173,272.605z"/>
		</g>
	</symbol>
	<symbol id='icon-search' viewBox="0 0 451 451">
		<path xmlns="http://www.w3.org/2000/svg" d="M447.05,428l-109.6-109.6c29.4-33.8,47.2-77.9,47.2-126.1C384.65,86.2,298.35,0,192.35,0C86.25,0,0.05,86.3,0.05,192.3   s86.3,192.3,192.3,192.3c48.2,0,92.3-17.8,126.1-47.2L428.05,447c2.6,2.6,6.1,4,9.5,4s6.9-1.3,9.5-4   C452.25,441.8,452.25,433.2,447.05,428z M26.95,192.3c0-91.2,74.2-165.3,165.3-165.3c91.2,0,165.3,74.2,165.3,165.3   s-74.1,165.4-165.3,165.4C101.15,357.7,26.95,283.5,26.95,192.3z"/>
	</symbol>
	<symbol id='icon-columns' viewBox="0 0 268.765 268.765">
		<path xmlns="http://www.w3.org/2000/svg" style="fill-rule:evenodd;clip-rule:evenodd;" d="M267.92,119.461c-0.425-3.778-4.83-6.617-8.639-6.617    c-12.315,0-23.243-7.231-27.826-18.414c-4.682-11.454-1.663-24.812,7.515-33.231c2.889-2.641,3.24-7.062,0.817-10.133    c-6.303-8.004-13.467-15.234-21.289-21.5c-3.063-2.458-7.557-2.116-10.213,0.825c-8.01,8.871-22.398,12.168-33.516,7.529    c-11.57-4.867-18.866-16.591-18.152-29.176c0.235-3.953-2.654-7.39-6.595-7.849c-10.038-1.161-20.164-1.197-30.232-0.08    c-3.896,0.43-6.785,3.786-6.654,7.689c0.438,12.461-6.946,23.98-18.401,28.672c-10.985,4.487-25.272,1.218-33.266-7.574    c-2.642-2.896-7.063-3.252-10.141-0.853c-8.054,6.319-15.379,13.555-21.74,21.493c-2.481,3.086-2.116,7.559,0.802,10.214    c9.353,8.47,12.373,21.944,7.514,33.53c-4.639,11.046-16.109,18.165-29.24,18.165c-4.261-0.137-7.296,2.723-7.762,6.597    c-1.182,10.096-1.196,20.383-0.058,30.561c0.422,3.794,4.961,6.608,8.812,6.608c11.702-0.299,22.937,6.946,27.65,18.415    c4.698,11.454,1.678,24.804-7.514,33.23c-2.875,2.641-3.24,7.055-0.817,10.126c6.244,7.953,13.409,15.19,21.259,21.508    c3.079,2.481,7.559,2.131,10.228-0.81c8.04-8.893,22.427-12.184,33.501-7.536c11.599,4.852,18.895,16.575,18.181,29.167    c-0.233,3.955,2.67,7.398,6.595,7.85c5.135,0.599,10.301,0.898,15.481,0.898c4.917,0,9.835-0.27,14.752-0.817    c3.897-0.43,6.784-3.786,6.653-7.696c-0.451-12.454,6.946-23.973,18.386-28.657c11.059-4.517,25.286-1.211,33.281,7.572    c2.657,2.89,7.047,3.239,10.142,0.848c8.039-6.304,15.349-13.534,21.74-21.494c2.48-3.079,2.13-7.559-0.803-10.213    c-9.353-8.47-12.388-21.946-7.529-33.524c4.568-10.899,15.612-18.217,27.491-18.217l1.662,0.043    c3.853,0.313,7.398-2.655,7.865-6.588C269.044,139.917,269.058,129.639,267.92,119.461z M134.595,179.491    c-24.718,0-44.824-20.106-44.824-44.824c0-24.717,20.106-44.824,44.824-44.824c24.717,0,44.823,20.107,44.823,44.824    C179.418,159.385,159.312,179.491,134.595,179.491z"/>
	</symbol>
	<symbol id='icon-close' viewBox="0 0 21.9 21.9">
		<path xmlns="http://www.w3.org/2000/svg" d="M14.1,11.3c-0.2-0.2-0.2-0.5,0-0.7l7.5-7.5c0.2-0.2,0.3-0.5,0.3-0.7s-0.1-0.5-0.3-0.7l-1.4-1.4C20,0.1,19.7,0,19.5,0  c-0.3,0-0.5,0.1-0.7,0.3l-7.5,7.5c-0.2,0.2-0.5,0.2-0.7,0L3.1,0.3C2.9,0.1,2.6,0,2.4,0S1.9,0.1,1.7,0.3L0.3,1.7C0.1,1.9,0,2.2,0,2.4  s0.1,0.5,0.3,0.7l7.5,7.5c0.2,0.2,0.2,0.5,0,0.7l-7.5,7.5C0.1,19,0,19.3,0,19.5s0.1,0.5,0.3,0.7l1.4,1.4c0.2,0.2,0.5,0.3,0.7,0.3  s0.5-0.1,0.7-0.3l7.5-7.5c0.2-0.2,0.5-0.2,0.7,0l7.5,7.5c0.2,0.2,0.5,0.3,0.7,0.3s0.5-0.1,0.7-0.3l1.4-1.4c0.2-0.2,0.3-0.5,0.3-0.7  s-0.1-0.5-0.3-0.7L14.1,11.3z"/>
	</symbol>
	<symbol id="icon-search" viewBox="0 0 485.213 485.213">
		<path d="M471.882,407.567L360.567,296.243c-16.586,25.795-38.536,47.734-64.331,64.321l111.324,111.324    c17.772,17.768,46.587,17.768,64.321,0C489.654,454.149,489.654,425.334,471.882,407.567z"/>
		<path d="M363.909,181.955C363.909,81.473,282.44,0,181.956,0C81.474,0,0.001,81.473,0.001,181.955s81.473,181.951,181.955,181.951    C282.44,363.906,363.909,282.437,363.909,181.955z M181.956,318.416c-75.252,0-136.465-61.208-136.465-136.46    c0-75.252,61.213-136.465,136.465-136.465c75.25,0,136.468,61.213,136.468,136.465    C318.424,257.208,257.206,318.416,181.956,318.416z"/>
		<path d="M75.817,181.955h30.322c0-41.803,34.014-75.814,75.816-75.814V75.816C123.438,75.816,75.817,123.437,75.817,181.955z"/>
	</symbol>
	<symbol id="icon-bar" viewBox="0 0 24 24">
		<g xmlns="http://www.w3.org/2000/svg">
			<path d="M24,3c0-0.6-0.4-1-1-1H1C0.4,2,0,2.4,0,3v2c0,0.6,0.4,1,1,1h22c0.6,0,1-0.4,1-1V3z"/>
			<path d="M24,11c0-0.6-0.4-1-1-1H1c-0.6,0-1,0.4-1,1v2c0,0.6,0.4,1,1,1h22c0.6,0,1-0.4,1-1V11z"/>
			<path d="M24,19c0-0.6-0.4-1-1-1H1c-0.6,0-1,0.4-1,1v2c0,0.6,0.4,1,1,1h22c0.6,0,1-0.4,1-1V19z"/>
		</g>
	</symbol>
	<symbol id="icon-expand" viewBox="0 0 512 512">
		<g xmlns="http://www.w3.org/2000/svg" id="Page-1" stroke="none" stroke-width="1" fill="none" fill-rule="evenodd">
			<g id="Path" fill="#ff9000">
				<g id="Path-2">
					<polyline points="64 107.510633 64 66 442.806511 66 442.806511 444.370442 401.103221 444.370442 401.103221 108.076959"/>
					<polyline points="130 41.5106329 130 0 508.806511 0 508.806511 378.370442 467.103221 378.370442 467.103221 42.0769587"/>
					<rect id="Rectangle-2-Copy" transform="translate(185.500000, 319.000000) rotate(-270.000000) translate(-185.500000, -319.000000) " x="160.5" y="246.5" width="50" height="145"/>
					<rect id="Rectangle-2" x="0" y="132" width="54" height="377"/>
					<rect id="Rectangle-2-Copy-3" transform="translate(188.500000, 159.000000) rotate(-270.000000) translate(-188.500000, -159.000000) " x="161.5" y="-29.5" width="54" height="377"/>
					<rect id="Rectangle-2-Copy-4" transform="translate(188.500000, 482.000000) rotate(-270.000000) translate(-188.500000, -482.000000) " x="161.5" y="293.5" width="54" height="377"/>
					<rect id="Rectangle-2-Copy-2" x="323" y="132" width="54" height="377"/>
				</g>
				<rect id="Rectangle-2-Copy-5" transform="translate(186.000000, 316.500000) rotate(-180.000000) translate(-186.000000, -316.500000) " x="161" y="244" width="50" height="145"/>
			</g>
		</g>
	</symbol>
	<symbol id="icon-collapse" viewBox="0 0 512 512">
		<g xmlns="http://www.w3.org/2000/svg" id="Page-1" stroke="none" stroke-width="1" fill="none" fill-rule="evenodd">
			<g id="Path-2" fill="#ff9000">
				<polyline points="64 107.510633 64 66 442.806511 66 442.806511 444.370442 401.103221 444.370442 401.103221 108.076959"/>
				<polyline points="130 41.5106329 130 0 508.806511 0 508.806511 378.370442 467.103221 378.370442 467.103221 42.0769587"/>
				<rect id="Rectangle-2-Copy" transform="translate(185.500000, 319.000000) rotate(-270.000000) translate(-185.500000, -319.000000) " x="160.5" y="246.5" width="50" height="145"/>
				<rect id="Rectangle-2" x="0" y="132" width="54" height="377"/>
				<rect id="Rectangle-2-Copy-3" transform="translate(188.500000, 159.000000) rotate(-270.000000) translate(-188.500000, -159.000000) " x="161.5" y="-29.5" width="54" height="377"/>
				<rect id="Rectangle-2-Copy-4" transform="translate(188.500000, 482.000000) rotate(-270.000000) translate(-188.500000, -482.000000) " x="161.5" y="293.5" width="54" height="377"/>
				<rect id="Rectangle-2-Copy-2" x="323" y="132" width="54" height="377"/>
			</g>
		</g>
	</symbol>













</svg>